<svg width="29" height="29" viewBox="0 0 29 29" fill="none" xmlns="http://www.w3.org/2000/svg">
<path d="M18.8905 15.2828C20.0694 14.3553 20.9299 13.0834 21.3523 11.6441C21.7746 10.2048 21.7379 8.6696 21.2471 7.25215C20.7563 5.8347 19.836 4.60546 18.6141 3.73544C17.3921 2.86542 15.9294 2.39789 14.4294 2.39789C12.9294 2.39789 11.4667 2.86542 10.2448 3.73544C9.0229 4.60546 8.10254 5.8347 7.61178 7.25215C7.12102 8.6696 7.08426 10.2048 7.50662 11.6441C7.92898 13.0834 8.78945 14.3553 9.96833 15.2828C7.9483 16.0921 6.18575 17.4344 4.86859 19.1666C3.55143 20.8988 2.72903 22.956 2.48906 25.1189C2.47169 25.2768 2.4856 25.4366 2.52998 25.5891C2.57436 25.7416 2.64835 25.8839 2.74773 26.0079C2.94842 26.2582 3.24034 26.4185 3.55925 26.4536C3.87816 26.4887 4.19794 26.3956 4.44825 26.1949C4.69856 25.9942 4.85889 25.7023 4.89397 25.3834C5.15801 23.0328 6.27882 20.8619 8.04226 19.2855C9.8057 17.7091 12.0881 16.8376 14.4535 16.8376C16.8188 16.8376 19.1013 17.7091 20.8647 19.2855C22.6281 20.8619 23.749 23.0328 24.013 25.3834C24.0457 25.6789 24.1867 25.9517 24.4087 26.1494C24.6308 26.347 24.9182 26.4554 25.2155 26.4536H25.3477C25.6629 26.4173 25.951 26.2579 26.1492 26.0102C26.3474 25.7624 26.4397 25.4464 26.4059 25.1309C26.1648 22.9619 25.3379 20.8994 24.014 19.1646C22.6901 17.4297 20.919 16.0878 18.8905 15.2828ZM14.4294 14.429C13.4781 14.429 12.5482 14.1469 11.7572 13.6184C10.9663 13.0899 10.3498 12.3387 9.98574 11.4599C9.6217 10.581 9.52645 9.61389 9.71204 8.68087C9.89763 7.74786 10.3557 6.89083 11.0284 6.21817C11.701 5.5455 12.5581 5.08741 13.4911 4.90182C14.4241 4.71624 15.3912 4.81149 16.2701 5.17553C17.149 5.53957 17.9001 6.15606 18.4287 6.94703C18.9572 7.738 19.2393 8.66793 19.2393 9.61922C19.2393 10.8949 18.7325 12.1183 17.8305 13.0203C16.9285 13.9223 15.7051 14.429 14.4294 14.429Z" fill="black"/>
</svg>
