<svg width="231" height="35" viewBox="0 0 231 35" fill="none" xmlns="http://www.w3.org/2000/svg">
<path d="M19.077 3.8864C19.0455 3.76053 19.1085 3.66613 19.2658 3.6032L20.5874 3.4144C20.7133 3.38293 20.8077 3.44586 20.8706 3.6032C21.4999 7.81973 21.8146 11.5485 21.8146 14.7896C21.8146 18.8488 21.3898 22.3259 20.5402 25.2208C19.6906 28.0843 18.4634 30.2712 16.8586 31.7816C15.2853 33.292 13.3973 34.0472 11.1946 34.0472C7.82766 34.0472 5.16873 32.5053 3.21779 29.4216C1.29833 26.3064 0.338592 21.0987 0.338592 13.7984C0.338592 10.3685 0.574592 6.41947 1.04659 1.9512C1.10953 1.79387 1.20393 1.7152 1.32979 1.7152L2.65139 1.8096C2.84019 1.8096 2.90313 1.904 2.84019 2.0928C2.36819 6.18347 2.13219 10.0696 2.13219 13.7512C2.13219 20.3907 2.95033 25.1421 4.58659 28.0056C6.22286 30.8376 8.37833 32.2536 11.053 32.2536C13.8535 32.2536 16.0405 30.7432 17.6138 27.7224C19.2186 24.7016 20.021 20.4536 20.021 14.9784C20.021 11.8003 19.7063 8.10293 19.077 3.8864ZM52.8888 6.5768C52.8888 16.5517 52.7157 25.5984 52.3696 33.7168C52.3696 33.7797 52.3381 33.8269 52.2752 33.8584C52.2437 33.8899 52.1965 33.9056 52.1336 33.9056L50.576 34C46.8944 30.224 42.8195 25.6928 38.3512 20.4064C33.9144 15.12 29.7923 9.91227 25.9848 4.7832C26.1107 9.94373 26.1736 16.3944 26.1736 24.1352C26.1736 28.5405 26.1579 31.7659 26.1264 33.8112C26.1264 33.9685 26.0477 34.0472 25.8904 34.0472L24.5688 33.9528C24.5059 33.9528 24.4429 33.9371 24.38 33.9056C24.3485 33.8427 24.3328 33.7797 24.3328 33.7168C24.3643 31.6085 24.38 28.2888 24.38 23.7576C24.38 15.3875 24.2856 8.1344 24.0968 1.9984C24.0968 1.93547 24.1125 1.88827 24.144 1.8568C24.2069 1.79386 24.2699 1.7624 24.3328 1.7624L25.6544 1.668C25.7488 1.668 25.796 1.68373 25.796 1.7152C25.8904 1.7152 25.9691 1.77813 26.032 1.904C29.808 7.096 33.9301 12.3667 38.3984 17.716C42.8667 23.0339 46.9573 27.5808 50.6704 31.3568C50.9536 23.4272 51.0952 14.7739 51.0952 5.3968V1.9512C51.0952 1.79387 51.1739 1.7152 51.3312 1.7152H52.6528C52.8101 1.7152 52.8888 1.79387 52.8888 1.9512V6.5768ZM62.3185 15.5448C65.8427 15.7021 68.5646 16.4416 70.4841 17.7632C72.435 19.0848 73.4105 20.8627 73.4105 23.0968C73.4105 24.0408 73.2217 25.0635 72.8441 26.1648C71.963 28.5563 70.2323 30.46 67.6521 31.876C65.0718 33.292 62.0195 34 58.4953 34C57.7086 34 57.1107 33.9843 56.7017 33.9528C56.6073 33.9528 56.5286 33.9056 56.4657 33.8112V33.6696C56.8747 29.8936 57.0793 26.0861 57.0793 22.2472C57.0793 18.8173 56.9219 15.3875 56.6073 11.9576C56.3241 8.49627 55.915 5.28667 55.3801 2.3288V2.2816C55.3801 2.0928 55.5217 1.9984 55.8049 1.9984C56.5601 1.93547 57.1265 1.904 57.5041 1.904C60.0843 1.904 62.0195 2.5648 63.3097 3.8864C64.5998 5.17653 65.2449 6.79707 65.2449 8.748C65.2449 9.9752 64.9774 11.2024 64.4425 12.4296C63.9075 13.6568 63.1995 14.6952 62.3185 15.5448ZM58.6841 15.5448C60.0686 15.2616 61.2014 14.4907 62.0825 13.232C62.995 11.9419 63.4513 10.5416 63.4513 9.0312C63.4513 7.55226 62.9478 6.30933 61.9409 5.3024C60.9654 4.29546 59.4707 3.77626 57.4569 3.7448C58.0862 7.45787 58.4953 11.3912 58.6841 15.5448ZM71.1449 25.5984C71.4281 24.7803 71.5697 24.0408 71.5697 23.38C71.5697 21.492 70.6099 20.0131 68.6905 18.9432C66.8025 17.8733 64.1593 17.3384 60.7609 17.3384C59.9113 17.3384 59.2505 17.3541 58.7785 17.3856C58.8414 19.5253 58.8729 21.1459 58.8729 22.2472C58.8729 25.9603 58.7155 29.2957 58.4009 32.2536C61.579 32.2536 64.3166 31.6557 66.6137 30.46C68.9107 29.2643 70.4211 27.6437 71.1449 25.5984ZM93.8422 33.6696C93.8736 33.764 93.8579 33.8427 93.795 33.9056C93.732 33.9371 93.6691 33.9528 93.6062 33.9528C89.7672 34.1101 86.8251 34.1888 84.7798 34.1888C82.7659 34.1888 79.7923 34.1101 75.859 33.9528C76.0792 29.3587 76.2051 25.4253 76.2366 22.1528L75.0566 22.0584L75.1038 20.2648L76.2838 20.3592V17.3384C76.2838 12.4296 76.1894 7.22187 76.0006 1.7152C77.0075 1.68373 78.5022 1.668 80.4846 1.668C83.82 1.668 86.8094 1.73093 89.4526 1.8568C89.547 1.8568 89.6099 1.904 89.6414 1.9984C89.7043 2.06133 89.72 2.12426 89.6886 2.1872L89.3582 3.4616C89.3582 3.52453 89.3267 3.57173 89.2638 3.6032C89.2323 3.63467 89.1851 3.6504 89.1222 3.6504C86.1014 3.52453 83.82 3.4616 82.2782 3.4616C81.3027 3.4616 79.808 3.49307 77.7942 3.556C77.983 8.02426 78.0774 12.2408 78.0774 16.2056C78.0774 18.0936 78.0616 19.5096 78.0302 20.4536C79.5406 20.548 81.051 20.5952 82.5614 20.5952H84.0718C84.1662 20.5952 84.2448 20.6424 84.3078 20.7368C84.3707 20.7997 84.3864 20.8627 84.355 20.9256L84.0718 22.1528C84.0718 22.2787 83.9931 22.3416 83.8358 22.3416H82.2782C81.3342 22.3416 79.9182 22.3101 78.0302 22.2472C77.9043 26.5267 77.7784 29.8307 77.6526 32.1592C80.516 32.2851 83.175 32.348 85.6294 32.348C88.1152 32.348 90.6955 32.2851 93.3702 32.1592C93.5275 32.1592 93.6062 32.2221 93.6062 32.348L93.8422 33.6696ZM172.797 1.5736C176.29 19.132 178.178 29.8464 178.461 33.7168C178.461 33.8741 178.382 33.9528 178.225 33.9528L176.903 34.0472C176.746 34.0472 176.667 33.9685 176.667 33.8112C176.573 32.6784 176.384 31.2152 176.101 29.4216C175.094 29.5475 173.788 29.6104 172.183 29.6104C169.981 29.6104 167.841 29.5003 165.764 29.28C165.135 30.7275 164.443 32.2221 163.687 33.764C163.656 33.8269 163.609 33.8741 163.546 33.9056C163.483 33.9371 163.42 33.9371 163.357 33.9056L162.177 33.2448C162.051 33.1504 162.02 33.056 162.083 32.9616C162.775 31.5141 163.373 30.2083 163.876 29.044L163.31 28.9496L163.593 27.156L164.584 27.2976C166.221 23.2699 167.589 19.0219 168.691 14.5536C169.792 10.0539 170.563 5.75867 171.003 1.668L172.797 1.5736ZM166.472 27.5336C168.675 27.7539 170.516 27.864 171.995 27.864C173.348 27.864 174.622 27.7853 175.818 27.628C175.031 22.8451 173.773 16.064 172.042 7.2848C170.941 14.0187 169.084 20.7683 166.472 27.5336ZM187.048 15.5448C190.572 15.7021 193.294 16.4416 195.214 17.7632C197.165 19.0848 198.14 20.8627 198.14 23.0968C198.14 24.0408 197.951 25.0635 197.574 26.1648C196.693 28.5563 194.962 30.46 192.382 31.876C189.801 33.292 186.749 34 183.225 34C182.438 34 181.84 33.9843 181.431 33.9528C181.337 33.9528 181.258 33.9056 181.195 33.8112V33.6696C181.604 29.8936 181.809 26.0861 181.809 22.2472C181.809 18.8173 181.652 15.3875 181.337 11.9576C181.054 8.49627 180.645 5.28667 180.11 2.3288V2.2816C180.11 2.0928 180.251 1.9984 180.535 1.9984C181.29 1.93547 181.856 1.904 182.234 1.904C184.814 1.904 186.749 2.5648 188.039 3.8864C189.329 5.17653 189.975 6.79707 189.975 8.748C189.975 9.9752 189.707 11.2024 189.172 12.4296C188.637 13.6568 187.929 14.6952 187.048 15.5448ZM183.414 15.5448C184.798 15.2616 185.931 14.4907 186.812 13.232C187.725 11.9419 188.181 10.5416 188.181 9.0312C188.181 7.55226 187.677 6.30933 186.671 5.3024C185.695 4.29546 184.2 3.77626 182.187 3.7448C182.816 7.45787 183.225 11.3912 183.414 15.5448ZM195.875 25.5984C196.158 24.7803 196.299 24.0408 196.299 23.38C196.299 21.492 195.34 20.0131 193.42 18.9432C191.532 17.8733 188.889 17.3384 185.491 17.3384C184.641 17.3384 183.98 17.3541 183.508 17.3856C183.571 19.5253 183.603 21.1459 183.603 22.2472C183.603 25.9603 183.445 29.2957 183.131 32.2536C186.309 32.2536 189.046 31.6557 191.343 30.46C193.64 29.2643 195.151 27.6437 195.875 25.5984ZM209.604 32.2064C209.761 32.2064 209.84 32.2851 209.84 32.4424V33.764C209.84 33.8269 209.808 33.8899 209.745 33.9528C209.714 33.9843 209.667 34 209.604 34L208.046 34.0472L205.12 34.0944C203.924 34.0944 202.949 34.0787 202.193 34.0472L200.494 34C200.746 29.3115 200.872 23.38 200.872 16.2056C200.872 10.3528 200.793 5.61706 200.636 1.9984C200.636 1.84106 200.715 1.7624 200.872 1.7624L202.193 1.668C202.351 1.668 202.429 1.74666 202.429 1.904C202.618 6.2464 202.713 10.9821 202.713 16.1112C202.713 21.1459 202.603 26.5267 202.382 32.2536L205.261 32.3008C206.394 32.3008 207.323 32.2851 208.046 32.2536L209.604 32.2064ZM230.741 33.6696C230.772 33.764 230.756 33.8427 230.693 33.9056C230.63 33.9371 230.568 33.9528 230.505 33.9528C226.666 34.1101 223.724 34.1888 221.678 34.1888C219.664 34.1888 216.691 34.1101 212.757 33.9528C212.978 29.3587 213.104 25.4253 213.135 22.1528L211.955 22.0584L212.002 20.2648L213.182 20.3592V17.3384C213.182 12.4296 213.088 7.22187 212.899 1.7152C213.906 1.68373 215.401 1.668 217.383 1.668C220.718 1.668 223.708 1.73093 226.351 1.8568C226.445 1.8568 226.508 1.904 226.54 1.9984C226.603 2.06133 226.618 2.12426 226.587 2.1872L226.257 3.4616C226.257 3.52453 226.225 3.57173 226.162 3.6032C226.131 3.63467 226.084 3.6504 226.021 3.6504C223 3.52453 220.718 3.4616 219.177 3.4616C218.201 3.4616 216.706 3.49307 214.693 3.556C214.881 8.02426 214.976 12.2408 214.976 16.2056C214.976 18.0936 214.96 19.5096 214.929 20.4536C216.439 20.548 217.949 20.5952 219.46 20.5952H220.97C221.065 20.5952 221.143 20.6424 221.206 20.7368C221.269 20.7997 221.285 20.8627 221.253 20.9256L220.97 22.1528C220.97 22.2787 220.892 22.3416 220.734 22.3416H219.177C218.233 22.3416 216.817 22.3101 214.929 22.2472C214.803 26.5267 214.677 29.8307 214.551 32.1592C217.414 32.2851 220.073 32.348 222.528 32.348C225.014 32.348 227.594 32.2851 230.269 32.1592C230.426 32.1592 230.505 32.2221 230.505 32.348L230.741 33.6696Z" fill="black"/>
<path d="M105.063 32.2064C105.221 32.2064 105.299 32.2851 105.299 32.4424V33.764C105.299 33.8269 105.268 33.8899 105.205 33.9528C105.173 33.9843 105.126 34 105.063 34L103.506 34.0472L100.579 34.0944C99.3835 34.0944 98.408 34.0787 97.6528 34.0472L95.9536 34C96.2054 29.3115 96.3312 23.38 96.3312 16.2056C96.3312 10.3528 96.2526 5.61706 96.0952 1.9984C96.0952 1.84106 96.1739 1.7624 96.3312 1.7624L97.6528 1.668C97.8102 1.668 97.8888 1.74666 97.8888 1.904C98.0776 6.2464 98.172 10.9821 98.172 16.1112C98.172 21.1459 98.0619 26.5267 97.8416 32.2536L100.721 32.3008C101.854 32.3008 102.782 32.2851 103.506 32.2536L105.063 32.2064ZM126.2 33.6696C126.231 33.764 126.216 33.8427 126.153 33.9056C126.09 33.9371 126.027 33.9528 125.964 33.9528C122.125 34.1101 119.183 34.1888 117.138 34.1888C115.124 34.1888 112.15 34.1101 108.217 33.9528C108.437 29.3587 108.563 25.4253 108.594 22.1528L107.414 22.0584L107.462 20.2648L108.642 20.3592V17.3384C108.642 12.4296 108.547 7.22187 108.358 1.7152C109.365 1.68373 110.86 1.668 112.842 1.668C116.178 1.668 119.167 1.73093 121.81 1.8568C121.905 1.8568 121.968 1.904 121.999 1.9984C122.062 2.06133 122.078 2.12426 122.046 2.1872L121.716 3.4616C121.716 3.52453 121.685 3.57173 121.622 3.6032C121.59 3.63467 121.543 3.6504 121.48 3.6504C118.459 3.52453 116.178 3.4616 114.636 3.4616C113.661 3.4616 112.166 3.49307 110.152 3.556C110.341 8.02426 110.435 12.2408 110.435 16.2056C110.435 18.0936 110.419 19.5096 110.388 20.4536C111.898 20.548 113.409 20.5952 114.919 20.5952H116.43C116.524 20.5952 116.603 20.6424 116.666 20.7368C116.729 20.7997 116.744 20.8627 116.713 20.9256L116.43 22.1528C116.43 22.2787 116.351 22.3416 116.194 22.3416H114.636C113.692 22.3416 112.276 22.3101 110.388 22.2472C110.262 26.5267 110.136 29.8307 110.01 32.1592C112.874 32.2851 115.533 32.348 117.987 32.348C120.473 32.348 123.053 32.2851 125.728 32.1592C125.885 32.1592 125.964 32.2221 125.964 32.348L126.2 33.6696ZM138.365 1.5736C141.858 19.132 143.746 29.8464 144.029 33.7168C144.029 33.8741 143.95 33.9528 143.793 33.9528L142.471 34.0472C142.314 34.0472 142.235 33.9685 142.235 33.8112C142.141 32.6784 141.952 31.2152 141.669 29.4216C140.662 29.5475 139.356 29.6104 137.751 29.6104C135.549 29.6104 133.409 29.5003 131.332 29.28C130.703 30.7275 130.011 32.2221 129.255 33.764C129.224 33.8269 129.177 33.8741 129.114 33.9056C129.051 33.9371 128.988 33.9371 128.925 33.9056L127.745 33.2448C127.619 33.1504 127.588 33.056 127.651 32.9616C128.343 31.5141 128.941 30.2083 129.444 29.044L128.878 28.9496L129.161 27.156L130.152 27.2976C131.789 23.2699 133.157 19.0219 134.259 14.5536C135.36 10.0539 136.131 5.75867 136.571 1.668L138.365 1.5736ZM132.04 27.5336C134.243 27.7539 136.084 27.864 137.563 27.864C138.916 27.864 140.19 27.7853 141.386 27.628C140.599 22.8451 139.341 16.064 137.61 7.2848C136.509 14.0187 134.652 20.7683 132.04 27.5336ZM159.932 2.4704C156.848 2.34453 154.52 2.2816 152.947 2.2816C151.94 2.2816 150.429 2.31306 148.415 2.376C148.604 7.31627 148.699 12.3195 148.699 17.3856V20.4536C151.468 20.5795 153.576 20.6267 155.023 20.5952L154.646 22.3416H153.041C152.065 22.3416 150.602 22.3101 148.651 22.2472C148.62 25.5512 148.494 29.4688 148.274 34H146.48C146.7 29.5317 146.826 25.5827 146.858 22.1528L145.678 22.0584L145.725 20.2648L146.858 20.3592C146.889 19.2264 146.905 17.5272 146.905 15.2616C146.905 10.4472 146.811 5.5384 146.622 0.535197C147.629 0.503731 149.155 0.487998 151.2 0.487998C154.599 0.487998 157.667 0.550931 160.404 0.676798L159.932 2.4704Z" fill="black"/>
<path d="M105.063 32.2064C105.221 32.2064 105.299 32.2851 105.299 32.4424V33.764C105.299 33.8269 105.268 33.8899 105.205 33.9528C105.173 33.9843 105.126 34 105.063 34L103.506 34.0472L100.579 34.0944C99.3835 34.0944 98.408 34.0787 97.6528 34.0472L95.9536 34C96.2054 29.3115 96.3312 23.38 96.3312 16.2056C96.3312 10.3528 96.2526 5.61706 96.0952 1.9984C96.0952 1.84106 96.1739 1.7624 96.3312 1.7624L97.6528 1.668C97.8102 1.668 97.8888 1.74666 97.8888 1.904C98.0776 6.2464 98.172 10.9821 98.172 16.1112C98.172 21.1459 98.0619 26.5267 97.8416 32.2536L100.721 32.3008C101.854 32.3008 102.782 32.2851 103.506 32.2536L105.063 32.2064ZM126.2 33.6696C126.231 33.764 126.216 33.8427 126.153 33.9056C126.09 33.9371 126.027 33.9528 125.964 33.9528C122.125 34.1101 119.183 34.1888 117.138 34.1888C115.124 34.1888 112.15 34.1101 108.217 33.9528C108.437 29.3587 108.563 25.4253 108.594 22.1528L107.414 22.0584L107.462 20.2648L108.642 20.3592V17.3384C108.642 12.4296 108.547 7.22187 108.358 1.7152C109.365 1.68373 110.86 1.668 112.842 1.668C116.178 1.668 119.167 1.73093 121.81 1.8568C121.905 1.8568 121.968 1.904 121.999 1.9984C122.062 2.06133 122.078 2.12426 122.046 2.1872L121.716 3.4616C121.716 3.52453 121.685 3.57173 121.622 3.6032C121.59 3.63467 121.543 3.6504 121.48 3.6504C118.459 3.52453 116.178 3.4616 114.636 3.4616C113.661 3.4616 112.166 3.49307 110.152 3.556C110.341 8.02426 110.435 12.2408 110.435 16.2056C110.435 18.0936 110.419 19.5096 110.388 20.4536C111.898 20.548 113.409 20.5952 114.919 20.5952H116.43C116.524 20.5952 116.603 20.6424 116.666 20.7368C116.729 20.7997 116.744 20.8627 116.713 20.9256L116.43 22.1528C116.43 22.2787 116.351 22.3416 116.194 22.3416H114.636C113.692 22.3416 112.276 22.3101 110.388 22.2472C110.262 26.5267 110.136 29.8307 110.01 32.1592C112.874 32.2851 115.533 32.348 117.987 32.348C120.473 32.348 123.053 32.2851 125.728 32.1592C125.885 32.1592 125.964 32.2221 125.964 32.348L126.2 33.6696ZM138.365 1.5736C141.858 19.132 143.746 29.8464 144.029 33.7168C144.029 33.8741 143.95 33.9528 143.793 33.9528L142.471 34.0472C142.314 34.0472 142.235 33.9685 142.235 33.8112C142.141 32.6784 141.952 31.2152 141.669 29.4216C140.662 29.5475 139.356 29.6104 137.751 29.6104C135.549 29.6104 133.409 29.5003 131.332 29.28C130.703 30.7275 130.011 32.2221 129.255 33.764C129.224 33.8269 129.177 33.8741 129.114 33.9056C129.051 33.9371 128.988 33.9371 128.925 33.9056L127.745 33.2448C127.619 33.1504 127.588 33.056 127.651 32.9616C128.343 31.5141 128.941 30.2083 129.444 29.044L128.878 28.9496L129.161 27.156L130.152 27.2976C131.789 23.2699 133.157 19.0219 134.259 14.5536C135.36 10.0539 136.131 5.75867 136.571 1.668L138.365 1.5736ZM132.04 27.5336C134.243 27.7539 136.084 27.864 137.563 27.864C138.916 27.864 140.19 27.7853 141.386 27.628C140.599 22.8451 139.341 16.064 137.61 7.2848C136.509 14.0187 134.652 20.7683 132.04 27.5336ZM159.932 2.4704C156.848 2.34453 154.52 2.2816 152.947 2.2816C151.94 2.2816 150.429 2.31306 148.415 2.376C148.604 7.31627 148.699 12.3195 148.699 17.3856V20.4536C151.468 20.5795 153.576 20.6267 155.023 20.5952L154.646 22.3416H153.041C152.065 22.3416 150.602 22.3101 148.651 22.2472C148.62 25.5512 148.494 29.4688 148.274 34H146.48C146.7 29.5317 146.826 25.5827 146.858 22.1528L145.678 22.0584L145.725 20.2648L146.858 20.3592C146.889 19.2264 146.905 17.5272 146.905 15.2616C146.905 10.4472 146.811 5.5384 146.622 0.535197C147.629 0.503731 149.155 0.487998 151.2 0.487998C154.599 0.487998 157.667 0.550931 160.404 0.676798L159.932 2.4704Z" fill="#79AA8D"/>
</svg>
